<svg version="1.2" xmlns="http://www.w3.org/2000/svg" viewBox="0 0 800 1000" width="800" height="1000"><defs><linearGradient id="P" gradientUnits="userSpaceOnUse"/><linearGradient id="g1" x1="400" y1="1010" x2="400" y2="-10" href="#P"><stop stop-color="#7b9fb2"/><stop offset="1" stop-color="#1e7ab1"/></linearGradient><linearGradient id="g2" x1="401.3" y1="1012.1" x2="401.3" y2="901.2" href="#P"><stop stop-color="#1e2a4e"/><stop offset="1" stop-color="#2a2662"/></linearGradient><linearGradient id="g3" x1="0" y1="0" x2="0" y2="0" href="#P"><stop stop-color="#47c51d"/><stop offset="1" stop-color="#6dc272"/></linearGradient><linearGradient id="g4" x1="399.8" y1="1013.4" x2="399.8" y2="899" href="#P"><stop stop-color="#13609c"/><stop offset="1" stop-color="#474d9a"/></linearGradient><linearGradient id="g5" x1="0" y1="0" x2="0" y2="0" href="#P"><stop stop-color="#13609c"/><stop offset="1" stop-color="#474d9a"/></linearGradient><linearGradient id="g6" x1="180" y1="230.7" x2="620" y2="445.3" href="#P"><stop offset="-0.03" stop-color="#ffe153"/><stop stop-color="#c498b9"/><stop offset="1" stop-color="#d1c7ce"/></linearGradient><radialGradient id="g7" cx="397.5" cy="469.5" r="60.6" href="#P"><stop stop-color="#948aff"/><stop offset=".6" stop-color="#948aff"/><stop offset=".98" stop-color="#5c4cfb"/><stop offset="1" stop-color="#5c4cfb"/></radialGradient><radialGradient id="g8" cx="400" cy="425" r="41.2" href="#P"><stop stop-color="#948aff"/><stop offset=".6" stop-color="#948aff"/><stop offset=".98" stop-color="#5c4cfb"/><stop offset="1" stop-color="#5c4cfb"/></radialGradient></defs><style>.a{fill:url(#g1)}.b{fill:url(#g2)}.c{fill:url(#g3)}.d{fill:url(#g4)}.e{fill:url(#g5)}.f{fill:#ff1985}.g{fill:#caafc3}.h{fill:#c6a0bc}.i{fill:#c7a2be}.j{fill:url(#g6)}.k{fill:#49442c}.l{fill:#ff941b}.m{fill:#4b40b3}.n{fill:url(#g7)}.o{fill:url(#g8)}.p{fill:#a8a17f}</style><path class="a" d="m-10-10h820v1020h-820z"/><path class="b" d="m-14 933c14-17.6 83.3-30.9 112.7-31.1 29.3-0.2 76.6 14.7 127 16.5 50.3 1.8 79.1-14.8 124.5-17 45.3-2.2 88.9 14.1 118 10.5 16-2 102-7.8 232-2.5 37 1.5 115.5 28 115.5 28 0 0 18.3 46.8 1.3 62.6-17 15.8-800 13-823.7 8.8-23.7-4.2-13.4-68.2-7.3-75.8z"/><path class="c" d=""/><path class="d" d="m-5 953c0 0 48.7-32.8 102-40 53.3-7.2 124.7 17.2 161 16 36.3-1.2 99.7-15.8 158-28 58.3-12.2 382.7 35.2 388 52 5.3 16.8 17 53.2 4 57-13 3.8-799.3 6-813-2-13.7-8-11.3-38.8 0-55z"/><path class="e" d=""/><path class="f" d="m364.3 903.9l-25.6-1.7-34.7 35.5 41 18.8z"/><path class="f" d="m337.3 761h27v144h-27z"/><path class="f" d="m436 903.9l25.6-1.7 34.7 35.5-41 18.8z"/><path class="f" d="m436 761h27v144h-27z"/><path class="g" d="m663.7 677.4l-120.5-145-15.5 122.5z"/><path class="g" d="m136.7 677.4l120.5-145 15.5 122.5z"/><path class="h" d="m400.2 774.5c-106.3 0-192.2-8-192.2-114.3 0-106.3 85.9-192.2 192.2-192.2 106.3 0 192.3 85.9 192.3 192.2 0 106.3-86 114.3-192.3 114.3z"/><path class="i" d="m448.7 156.4h-44.5l-41.1-5.7 7.1-2.8 80-63-25 52 50-27z"/><path class="j" d="m400 534c-121.7 0-220-29.3-220-151 0-121.7 98.3-241 220-241 121.7 0 220 119.3 220 241 0 121.7-98.3 151-220 151z"/><path class="k" d="m322.2 315c15 0 27.2 9.2 27.2 20.6 0 11.4-12.2 20.6-27.2 20.6-15 0-27.2-9.2-27.2-20.6 0-11.4 12.2-20.6 27.2-20.6z"/><path class="k" d="m477.8 315c15 0 27.2 9.2 27.2 20.6 0 11.4-12.2 20.6-27.2 20.6-15 0-27.2-9.2-27.2-20.6 0-11.4 12.2-20.6 27.2-20.6z"/><path fill-rule="evenodd" class="l" d="m345 411c0 0 46.4 13.6 57.1 19.8-0.6 5.1-1.5 8.6-2.5 7.6-5.5-5.6-54.6-27.4-54.6-27.4zm59-3.4c0 0 0.4-22.9-2.6-22.6 3-0.3 4.2 22.4 4.2 22.4 0 0 1.2 27.7-1.7 24.7q-0.6-0.6-1.8-1.3c1.3-9.1 1.9-23.2 1.9-23.2zm-1.9 23.2c-10.7-6.2-57.1-19.8-57.1-19.8 0 0 46.4 13.6 57.1 19.8z"/><path fill-rule="evenodd" class="l" d="m396.1 407.6c0 0 0.4 14.3 1.5 23.5 0.6 5 1.4 8.6 2.4 7.5 5.5-5.5 55.2-27.6 55.2-27.6l-57.6 20.1q-0.8 0.6-1.3 1c-2.9 3-1.7-24.7-1.7-24.7 0 0 1.1-22.7 4.2-22.4-3.1-0.3-2.7 22.6-2.7 22.6zm1.5 23.5c9.8-6.1 57.6-20.1 57.6-20.1 0 0-47.8 14-57.6 20.1z"/><path class="m" d="m324.5 380.3c-3.9 1.3-8.5 3.1-10.3 4-1.7 0.9-4.9 3.2-6.9 4.9-2 1.8-5.6 6-8 9.3-2.8 3.8-5.2 8.6-6.5 13-1.7 5.6-2 8.9-1.7 17 0.4 8.8 0.9 10.9 3.8 17 2 4.2 5.5 9.3 9 12.9 3.1 3.2 7.6 7 10.1 8.4 2.5 1.4 7.1 3.4 10.3 4.4 4.1 1.3 9 1.8 17.4 1.8 8.3 0 12.9-0.4 15.6-1.5 2.1-0.9 10-1.9 19-2.6 8.3-0.6 22-0.8 30.2-0.4 8.3 0.3 17.9 1.1 21.5 1.6 3.6 0.6 7.4 1.7 8.5 2.5 1.5 1.1 5.5 1.4 16 1.4 9.5 0 15.9-0.5 20-1.6 3.3-0.8 8.3-2.7 11-4.2 2.8-1.5 7.9-5.6 11.5-9.2 4.9-4.9 7.2-8.1 9.1-13 1.5-3.6 3.1-8.1 3.8-10 0.6-1.9 1.1-6.8 1.1-10.8 0-3.9-0.3-7.4-0.7-7.6-0.5-0.2-1.1-1.9-1.4-3.7-0.4-1.9-1.7-5.7-3-8.4-1.3-2.8-5.1-7.9-8.4-11.4-3.3-3.5-8-7.5-10.5-8.9-2.5-1.5-7.1-3.4-10.2-4.4-4.5-1.4-9.2-1.8-21-1.8-8.4 0-24.1 0.5-34.8 1.1-14.3 0.9-25.1 0.9-40.5 0-11.6-0.6-26.9-1.3-34-1.6-11.8-0.5-13.6-0.3-20 1.8z"/><path fill-rule="evenodd" class="n" d="m397.5 415c30.1 0 54.5 24.4 54.5 54.5 0 30.1-24.4 54.5-54.5 54.5-30.1 0-54.5-24.4-54.5-54.5 0-30.1 24.4-54.5 54.5-54.5zm-43.5 54c0 23.8 19.2 43 43 43 23.8 0 43-19.2 43-43 0-23.8-19.2-43-43-43-23.8 0-43 19.2-43 43z"/><path class="o" d="m400 388c20.5 0 37 16.5 37 37 0 20.5-16.5 37-37 37-20.5 0-37-16.5-37-37 0-20.5 16.5-37 37-37z"/><path class="p" d="m328.5 318c4.1 0 7.5 2.2 7.5 5 0 2.8-3.4 5-7.5 5-4.1 0-7.5-2.2-7.5-5 0-2.8 3.4-5 7.5-5z"/><path class="p" d="m484.5 318c4.1 0 7.5 2.2 7.5 5 0 2.8-3.4 5-7.5 5-4.1 0-7.5-2.2-7.5-5 0-2.8 3.4-5 7.5-5z"/><path class="p" d=""/></svg>