<svg version="1.2" xmlns="http://www.w3.org/2000/svg" viewBox="0 0 800 1000" width="800" height="1000">
	<title>duck-blue-svg</title>
	<defs>
		<linearGradient id="g1" x1="401.3" y1="1012.1" x2="401.3" y2="901.2" gradientUnits="userSpaceOnUse">
			<stop offset="0" stop-color="#47c51d"/>
			<stop offset="1" stop-color="#6dc272"/>
		</linearGradient>
		<linearGradient id="g2" x1="404.8" y1="1013.4" x2="404.8" y2="899" gradientUnits="userSpaceOnUse">
			<stop offset="0" stop-color="#82c502"/>
			<stop offset="1" stop-color="#5c9a47"/>
		</linearGradient>
		<linearGradient id="g3" x1="180" y1="230.7" x2="620" y2="445.3" gradientUnits="userSpaceOnUse">
			<stop offset="0" stop-color="#fbfcff"/>
			<stop offset="1" stop-color="#c9d3ed"/>
		</linearGradient>
	</defs>
	<style>
		.s0 { fill: #76b4c6 } 
		.s1 { fill: url(#g1) } 
		.s2 { fill: url(#g2) } 
		.s3 { fill: #ff941b } 
		.s4 { fill: #dae1f3 } 
		.s5 { fill: url(#g3) } 
		.s6 { fill: #49442c } 
		.s7 { fill: #928f82 } 
		.s8 { fill: #ffcc1b } 
	</style>
	<path id="Shape 11" class="s0" d="m-84-43h962v1090h-962z"/>
	<path id="Shape 2" class="s1" d="m-14 933c14-17.6 83.3-30.9 112.7-31.1 29.3-0.2 76.6 14.7 127 16.5 50.3 1.8 79.1-14.8 124.5-17 45.3-2.2 88.9 14.1 118 10.5 16-2 102-7.8 232-2.5 37 1.5 115.5 28 115.5 28 0 0 18.3 46.8 1.3 62.6-17 15.8-800 13-823.7 8.8-23.7-4.2-13.4-68.2-7.3-75.8z"/>
	<path id="Shape 1" class="s2" d="m0 953c0 0 48.7-32.8 102-40 53.3-7.2 124.7 17.2 161 16 36.3-1.2 99.7-15.8 158-28 58.3-12.2 382.7 35.2 388 52 5.3 16.8 17 53.2 4 57-13 3.8-799.3 6-813-2-13.7-8-11.3-38.8 0-55z"/>
	<g id="Folder 3">
		<path id="Shape 8" class="s3" d="m364.3 903.9l-25.6-1.7-34.7 35.5 41 18.8z"/>
		<path id="Shape 8 copy" class="s3" d="m337.3 761h27v144h-27z"/>
	</g>
	<g id="Folder 3 copy">
		<path id="Shape 8" class="s3" d="m436 903.9l25.6-1.7 34.7 35.5-41 18.8z"/>
		<path id="Shape 8 copy" class="s3" d="m436 761h27v144h-27z"/>
	</g>
	<path id="Shape 9" class="s4" d="m663.7 677.4l-120.5-145-15.5 122.5z"/>
	<path id="Shape 9 copy" class="s4" d="m136.7 677.4l120.5-145 15.5 122.5z"/>
	<path id="Shape 4" class="s4" d="m400.2 774.5c-106.3 0-192.2-8-192.2-114.3 0-106.3 85.9-192.2 192.2-192.2 106.3 0 192.3 85.9 192.3 192.2 0 106.3-86 114.3-192.3 114.3z"/>
	<path id="Shape 6" class="s3" d="m448.7 156.4h-44.5l-41.1-5.7 7.1-2.8 80-63-25 52 50-27z"/>
	<path id="Shape 5" class="s5" d="m400 534c-121.7 0-220-29.3-220-151 0-121.7 98.3-241 220-241 121.7 0 220 119.3 220 241 0 121.7-98.3 151-220 151z"/>
	<g id="Folder 1">
		<path id="Shape 7 copy" class="s6" d="m322.2 356.2c-15 0-27.2-9.2-27.2-20.6 0-11.4 12.2-20.6 27.2-20.6 15.1 0 27.2 9.2 27.2 20.6 0 11.4-12.1 20.6-27.2 20.6z"/>
		<path id="Shape 7 copy 3" fill-rule="evenodd" class="s6" d="m477.8 356.2c-15.1 0-27.2-9.2-27.2-20.6 0-11.4 12.1-20.6 27.2-20.6 15 0 27.2 9.2 27.2 20.6 0 11.4-12.2 20.6-27.2 20.6z"/>
		<path id="Shape 10" class="s7" d="m312.5 334c-5.8 0-10.5-2.9-10.5-6.5 0-3.6 4.7-6.5 10.5-6.5 5.8 0 10.5 2.9 10.5 6.5 0 3.6-4.7 6.5-10.5 6.5z"/>
		<path id="Shape 10 copy" class="s7" d="m469.5 334c-5.8 0-10.5-2.9-10.5-6.5 0-3.6 4.7-6.5 10.5-6.5 5.8 0 10.5 2.9 10.5 6.5 0 3.6-4.7 6.5-10.5 6.5z"/>
	</g>
	<g id="Folder 2">
		<path id="Shape 7 copy 4" class="s8" d=""/>
		<path id="Shape 7" fill-rule="evenodd" class="s3" d="m404 407.6c0 0 0.4-22.9-2.6-22.6-35.1 3.6-56.4 26-56.4 26 0 0 46.4 13.6 57.1 19.8 1.3-9.1 1.9-23.2 1.9-23.2zm-4.4 30.8c-5.5-5.6-54.6-27.4-54.6-27.4 0 0 46.4 13.6 57.1 19.8-0.6 5.1-1.5 8.6-2.5 7.6z"/>
		<path id="Shape 7 copy 2" fill-rule="evenodd" class="s3" d="m400 438.6c-1 1-1.8-2.3-2.3-7.1 7.3-5.2 47-17.2 56.2-19.9-7.7 3.4-48.9 22-53.9 27zm-2.4-7.5c9.8-6.1 57.6-20.1 57.6-20.1 0 0-0.4 0.2-1.3 0.6 1.3-0.4 1.9-0.6 1.9-0.6 0 0-21.3-22.4-56.4-26-1.4-0.1-2.3 4.4-3 9.4-0.4 6.2-0.3 13.2-0.3 13.2 0 0 0.4 14.3 1.5 23.5q-0.8 0.6-1.3 1 0 0-0.1 0.1 0.3 0.3 0.7-0.1 0.3-0.3 0.8-0.6-0.1-0.2-0.1-0.4zm-3-23.7c0 0 1.1-22.7 4.2-22.4-1.4-0.1-2.1 4.4-2.4 9.4-0.8 6.2-1.2 13-1.2 13 0 0-0.9 22.7 1 24.8-2.8 2.4-1.6-24.8-1.6-24.8z"/>
	</g>
</svg>