<svg version="1.2" xmlns="http://www.w3.org/2000/svg" viewBox="0 0 800 1000" width="800" height="1000"><defs><linearGradient id="P" gradientUnits="userSpaceOnUse"/><linearGradient id="g1" x1="401.3" y1="1012.1" x2="401.3" y2="901.2" href="#P"><stop stop-color="#47c51d"/><stop offset="1" stop-color="#6dc272"/></linearGradient><linearGradient id="g2" x1="404.8" y1="1013.4" x2="404.8" y2="899" href="#P"><stop stop-color="#82c502"/><stop offset="1" stop-color="#5c9a47"/></linearGradient><linearGradient id="g3" x1="180" y1="230.7" x2="620" y2="445.3" href="#P"><stop stop-color="#a0b4eb"/><stop offset="1" stop-color="#4568cc"/></linearGradient></defs><style>.a{fill:#52e1ff}.b{fill:url(#g1)}.c{fill:url(#g2)}.d{fill:#ffcc1b}.e{fill:#4568cc}.f{fill:#819ae1}.g{fill:url(#g3)}.h{fill:#49442c}.i{fill:#928f82}.j{fill:#ff941b}</style><path class="a" d="m-84-43h962v1090h-962z"/><path class="b" d="m-14 933c14-17.6 83.3-30.9 112.7-31.1 29.3-0.2 76.6 14.7 127 16.5 50.3 1.8 79.1-14.8 124.5-17 45.3-2.2 88.9 14.1 118 10.5 16-2 102-7.8 232-2.5 37 1.5 115.5 28 115.5 28 0 0 18.3 46.8 1.3 62.6-17 15.8-800 13-823.7 8.8-23.7-4.2-13.4-68.2-7.3-75.8z"/><path class="c" d="m0 953c0 0 48.7-32.8 102-40 53.3-7.2 124.7 17.2 161 16 36.3-1.2 99.7-15.8 158-28 58.3-12.2 382.7 35.2 388 52 5.3 16.8 17 53.2 4 57-13 3.8-799.3 6-813-2-13.7-8-11.3-38.8 0-55z"/><path class="d" d="m364.3 903.9l-25.6-1.7-34.7 35.5 41 18.8z"/><path class="d" d="m337.3 761h27v144h-27z"/><path class="d" d="m436 903.9l25.6-1.7 34.7 35.5-41 18.8z"/><path class="d" d="m436 761h27v144h-27z"/><path class="e" d="m663.7 677.4l-120.5-145-15.5 122.5z"/><path class="e" d="m136.7 677.4l120.5-145 15.5 122.5z"/><path class="e" d="m400.2 774.5c-106.3 0-192.2-8-192.2-114.3 0-106.3 85.9-192.2 192.2-192.2 106.3 0 192.3 85.9 192.3 192.2 0 106.3-86 114.3-192.3 114.3z"/><path class="f" d="m448.7 156.4h-44.5l-41.1-5.7 7.1-2.8 80-63-25 52 50-27z"/><path class="g" d="m400 534c-121.7 0-220-29.3-220-151 0-121.7 98.3-241 220-241 121.7 0 220 119.3 220 241 0 121.7-98.3 151-220 151z"/><path class="h" d="m322.2 356.2c-15 0-27.2-9.2-27.2-20.6 0-11.4 12.2-20.6 27.2-20.6 15.1 0 27.2 9.2 27.2 20.6 0 11.4-12.1 20.6-27.2 20.6z"/><path fill-rule="evenodd" class="h" d="m477.8 356.2c-15.1 0-27.2-9.2-27.2-20.6 0-11.4 12.1-20.6 27.2-20.6 15 0 27.2 9.2 27.2 20.6 0 11.4-12.2 20.6-27.2 20.6z"/><path class="i" d="m312.5 334c-5.8 0-10.5-2.9-10.5-6.5 0-3.6 4.7-6.5 10.5-6.5 5.8 0 10.5 2.9 10.5 6.5 0 3.6-4.7 6.5-10.5 6.5z"/><path class="i" d="m469.5 334c-5.8 0-10.5-2.9-10.5-6.5 0-3.6 4.7-6.5 10.5-6.5 5.8 0 10.5 2.9 10.5 6.5 0 3.6-4.7 6.5-10.5 6.5z"/><path class="d" d=""/><path fill-rule="evenodd" class="j" d="m404 407.6c0 0 0.4-22.9-2.6-22.6-35.1 3.6-56.4 26-56.4 26 0 0 46.4 13.6 57.1 19.8 1.3-9.1 1.9-23.2 1.9-23.2zm-4.4 30.8c-5.5-5.6-54.6-27.4-54.6-27.4 0 0 46.4 13.6 57.1 19.8-0.6 5.1-1.5 8.6-2.5 7.6z"/><path fill-rule="evenodd" class="j" d="m400 438.6c-1 1-1.8-2.3-2.3-7.1 7.3-5.2 47-17.2 56.2-19.9-7.7 3.4-48.9 22-53.9 27zm-2.4-7.5c9.8-6.1 57.6-20.1 57.6-20.1 0 0-0.4 0.2-1.3 0.6 1.3-0.4 1.9-0.6 1.9-0.6 0 0-21.3-22.4-56.4-26-1.4-0.1-2.3 4.4-3 9.4-0.4 6.2-0.3 13.2-0.3 13.2 0 0 0.4 14.3 1.5 23.5q-0.8 0.6-1.3 1 0 0-0.1 0.1 0.3 0.3 0.7-0.1 0.3-0.3 0.8-0.6-0.1-0.2-0.1-0.4zm-3-23.7c0 0 1.1-22.7 4.2-22.4-1.4-0.1-2.1 4.4-2.4 9.4-0.8 6.2-1.2 13-1.2 13 0 0-0.9 22.7 1 24.8-2.8 2.4-1.6-24.8-1.6-24.8z"/></svg>