<svg version="1.2" xmlns="http://www.w3.org/2000/svg" viewBox="0 0 800 1000" width="800" height="1000">
	<title>z-template-tank-svg</title>
	<style>
		.s0 { fill: #ffffff } 
	</style>
	<path id="Path 0 copy" class="s0" d="m209.7 631.9c-0.5 1.4-1.2 11.6-1.5 22.6-0.4 16.1-0.1 22 1.3 30.5 0.9 5.8 2.6 13.4 3.7 17 1.1 3.6 3.6 9.6 5.5 13.5 2 3.9 5.4 9.7 7.8 13 2.3 3.3 6.9 8.5 10.1 11.5 3.3 3 9.3 7.6 13.4 10.2 4.1 2.6 11.8 6.5 17 8.6 5.2 2.2 14 5.1 19.5 6.5 5.5 1.4 14.8 3.4 20.7 4.4l10.7 1.8 0.6 44.7c4.6 3.7 8.5 5.4 11.5 6.2 3 0.9 5.8 1.6 6.3 1.6 0.4 0 0.7-4.3 0.7-9.5v-9.5c4.3-1.1 9.1-1.4 13.5-1.4 4.4 0 9.2 0.3 10.8 0.7l2.7 0.7c0 17.3 0.3 20 1.3 20 0.6 0 4.6-0.9 8.7-2.1 4.1-1.1 8.7-2.9 10.3-4l2.7-1.9v-42h30l0.5 41.2c4.6 3.7 8.5 5.4 11.5 6.2 3 0.9 5.8 1.6 6.3 1.6 0.4 0 0.7-4.3 0.7-9.5v-9.5c4.3-1.1 9.1-1.4 13.5-1.4 4.4 0 9.2 0.3 10.8 0.7l2.7 0.7c0 17.3 0.3 20 1.3 20 0.6 0 4.6-0.9 8.7-2.1 4.1-1.1 8.7-2.9 10.3-4l2.7-1.9v-46c3.5-0.7 8.6-1.7 13.5-2.5 4.9-0.9 13.7-3 19.5-4.6 5.8-1.7 15-5.2 20.5-7.8 5.5-2.6 13.4-7.3 17.5-10.4 4.1-3.2 10.1-8.7 13.3-12.5 3.7-4.2 7.8-10.8 11.2-17.7 3-6.2 6.2-14.7 7.4-19.5 1.1-4.7 2.5-12.9 3.1-18.2 0.5-5.4 1-13.7 0.9-18.5 0-4.9-0.3-12-0.7-16-0.4-3.9-0.9-7.4-1.2-7.8-0.3-0.3-7.2 0.3-15.5 1.4-8.2 1.1-18.6 2.5-23 3.1-4.4 0.5-15.4 1.6-24.5 2.4-9.1 0.9-23.9 2-33 2.6-9.1 0.6-29.1 1.4-44.5 1.9-16.6 0.6-43.5 0.6-66 0-20.9-0.5-47.4-1.6-59-2.4-11.6-0.9-31.1-2.7-43.5-4-12.4-1.4-29.2-3.6-37.5-5-8.2-1.3-19.2-3.3-24.4-4.3l-9.4-2z"/>
</svg>