<svg version="1.2" xmlns="http://www.w3.org/2000/svg" viewBox="0 0 800 1000" width="800" height="1000">
	<title>z-template-tank-svg</title>
	<style>
		.s0 { fill: #66dc61 } 
		.s1 { fill: #fff844 } 
	</style>
	<path id="Path 0 copy" class="s0" d="m209.7 631.9c-0.5 1.4-1.2 11.6-1.5 22.6-0.4 16.1-0.1 22 1.3 30.5 0.9 5.8 2.6 13.4 3.7 17 1.1 3.6 3.6 9.6 5.5 13.5 2 3.9 5.4 9.7 7.8 13 2.3 3.3 6.9 8.5 10.1 11.5 3.3 3 9.3 7.6 13.4 10.2 4.1 2.6 11.8 6.5 17 8.6 5.2 2.2 14 5.1 19.5 6.5 5.5 1.4 14.8 3.4 20.7 4.4l10.7 1.8 0.6 44.7c4.6 3.7 8.5 5.4 11.5 6.2 3 0.9 5.8 1.6 6.3 1.6 0.4 0 0.7-4.3 0.7-9.5v-9.5c4.3-1.1 9.1-1.4 13.5-1.4 4.4 0 9.2 0.3 10.8 0.7l2.7 0.7c0 17.3 0.3 20 1.3 20 0.6 0 4.6-0.9 8.7-2.1 4.1-1.1 8.7-2.9 10.3-4l2.7-1.9v-42h30l0.5 41.2c4.6 3.7 8.5 5.4 11.5 6.2 3 0.9 5.8 1.6 6.3 1.6 0.4 0 0.7-4.3 0.7-9.5v-9.5c4.3-1.1 9.1-1.4 13.5-1.4 4.4 0 9.2 0.3 10.8 0.7l2.7 0.7c0 17.3 0.3 20 1.3 20 0.6 0 4.6-0.9 8.7-2.1 4.1-1.1 8.7-2.9 10.3-4l2.7-1.9v-46c3.5-0.7 8.6-1.7 13.5-2.5 4.9-0.9 13.7-3 19.5-4.6 5.8-1.7 15-5.2 20.5-7.8 5.5-2.6 13.4-7.3 17.5-10.4 4.1-3.2 10.1-8.7 13.3-12.5 3.7-4.2 7.8-10.8 11.2-17.7 3-6.2 6.2-14.7 7.4-19.5 1.1-4.7 2.5-12.9 3.1-18.2 0.5-5.4 1-13.7 0.9-18.5 0-4.9-0.3-12-0.7-16-0.4-3.9-0.9-7.4-1.2-7.8-0.3-0.3-7.2 0.3-15.5 1.4-8.2 1.1-18.6 2.5-23 3.1-4.4 0.5-15.4 1.6-24.5 2.4-9.1 0.9-23.9 2-33 2.6-9.1 0.6-29.1 1.4-44.5 1.9-16.6 0.6-43.5 0.6-66 0-20.9-0.5-47.4-1.6-59-2.4-11.6-0.9-31.1-2.7-43.5-4-12.4-1.4-29.2-3.6-37.5-5-8.2-1.3-19.2-3.3-24.4-4.3l-9.4-2z"/>
	<path id="Path 0" fill-rule="evenodd" class="s1" d="m210.7 629.2l9.4 2c5.2 1 16.2 3 24.4 4.3 8.3 1.4 25.1 3.6 37.5 5 12.4 1.3 32 3.1 43.5 4 11.6 0.8 38.1 1.9 59 2.4 22.5 0.6 49.4 0.6 66 0 15.4-0.5 35.4-1.3 44.5-1.9 9.1-0.6 23.9-1.7 33-2.6 9.1-0.8 20.1-1.9 24.5-2.4 2.3-0.3 6.1-0.8 10.5-1.4l-0.6 1.2-7.6 1.2q-0.8 0.1-0.8 0.7 0 0.3 0.4 0.7l5.4 5.6-1.2 7.9q-0.1 0.2-0.1 0.3 0 0.3 0.2 0.6 0.1 0.2 0.5 0.2 0.2 0 0.6-0.2l6.7-3.7 6.7 3.7q0.4 0.2 0.6 0.2 0.3 0 0.5-0.2 0.2-0.3 0.2-0.6 0-0.2-0.1-0.3l-1.2-7.9 5.4-5.6q0.4-0.4 0.4-0.7 0-0.6-0.8-0.7l-7.6-1.2-1-2.1c2-0.3 4-0.5 5.9-0.8 8.3-1.1 15.2-1.7 15.5-1.4 0.3 0.4 0.8 3.9 1.2 7.8 0.4 4 0.7 11.1 0.7 15.9 0.1 4.9-0.4 13.2-0.9 18.5-0.6 5.4-2 13.6-3.1 18.3-1.2 4.8-4.4 13.3-7.4 19.5-3.4 6.9-7.5 13.5-11.2 17.7-3.2 3.8-9.2 9.3-13.3 12.5-4.1 3.1-12 7.8-17.5 10.4-5.5 2.6-14.7 6.1-20.5 7.8-5.8 1.6-14.6 3.7-19.5 4.6-4.9 0.8-10 1.8-13.5 2.5v46l-2.7 1.9c-1.6 1.1-6.2 2.9-10.3 4-4.1 1.2-8.1 2.1-8.7 2.1-1 0-1.3-2.7-1.3-20l-2.7-0.7c-1.6-0.4-6.4-0.7-10.8-0.7-4.4 0-9.2 0.3-13.5 1.4v9.5c0 5.2-0.3 9.5-0.7 9.5-0.5 0-3.3-0.7-6.3-1.6-3-0.8-6.9-2.5-11.5-6.2l-0.5-41.2h-30v42l-2.7 1.9c-1.6 1.1-6.2 2.9-10.3 4-4.1 1.2-8.1 2.1-8.7 2.1-1 0-1.3-2.7-1.3-20l-2.7-0.7c-1.6-0.4-6.4-0.7-10.8-0.7-4.4 0-9.2 0.3-13.5 1.4v9.5c0 5.2-0.3 9.5-0.7 9.5-0.5 0-3.3-0.7-6.3-1.6-3-0.8-6.9-2.5-11.5-6.2l-0.6-44.7-10.7-1.8c-5.9-1-15.2-3-20.7-4.4-5.5-1.4-14.3-4.3-19.5-6.5-3.1-1.3-7.1-3.2-10.7-5q0.2-0.3 0.2-0.6 0-0.2-0.1-0.3l-1.2-7.9 5.4-5.6q0.4-0.4 0.4-0.7 0-0.6-0.8-0.7l-7.6-1.2-3.4-7.2q-0.2-0.6-0.7-0.6-0.5 0-0.7 0.6l-3.4 7.2-7.6 1.2q-0.8 0.1-0.8 0.7 0 0.3 0.4 0.7l2.4 2.5q-1.2-1-2.2-1.9c-3.2-3-7.8-8.2-10.1-11.5-2.4-3.3-5.8-9.2-7.8-13-0.8-1.7-1.8-3.8-2.7-5.9l4.5-2.5 6.7 3.7q0.4 0.2 0.6 0.2 0.3 0 0.5-0.2 0.2-0.3 0.2-0.6 0-0.2-0.1-0.3l-1.2-7.9 5.4-5.6q0.4-0.4 0.4-0.7 0-0.6-0.8-0.7l-7.6-1.2-3.4-7.2q-0.2-0.6-0.7-0.6-0.5 0-0.7 0.6l-3.4 7.2-5.1 0.8c-0.7-3.2-1.3-6.6-1.8-9.6-1.4-8.5-1.7-14.4-1.3-30.5 0.3-11 1-21.2 1.5-22.6zm2.5 72.7q-0.1-0.4-0.2-0.8l0.9 0.9-0.2 1.2q-0.3-0.7-0.5-1.3zm48.4-40.2l-3.3-7.1q-0.3-0.7-0.8-0.7-0.4 0-0.7 0.7l-3.4 7.1-7.5 1.2q-0.9 0.1-0.9 0.7 0 0.4 0.4 0.8l5.5 5.6-1.3 7.8q-0.1 0.3-0.1 0.3 0 0.4 0.2 0.6 0.2 0.2 0.5 0.2 0.2 0 0.6-0.2l6.7-3.7 6.8 3.7q0.3 0.2 0.6 0.2 0.3 0 0.4-0.2 0.2-0.2 0.2-0.6 0-0.2 0-0.3l-1.3-7.8 5.4-5.6q0.4-0.4 0.4-0.8 0-0.6-0.8-0.7zm84 6l-3.4-7.2q-0.3-0.6-0.7-0.6-0.5 0-0.8 0.6l-3.4 7.2-7.5 1.1q-0.8 0.2-0.8 0.8 0 0.3 0.3 0.7l5.5 5.6-1.3 7.9q0 0.2 0 0.3 0 0.3 0.1 0.6 0.2 0.2 0.5 0.2 0.3 0 0.6-0.2l6.8-3.7 6.7 3.7q0.3 0.2 0.6 0.2 0.3 0 0.5-0.2 0.1-0.3 0.1-0.6 0-0.2 0-0.3l-1.3-7.9 5.5-5.6q0.4-0.4 0.4-0.7 0-0.6-0.9-0.8zm-40 36l-3.4-7.1q-0.2-0.7-0.7-0.7-0.4 0-0.7 0.7l-3.4 7.1-7.6 1.2q-0.8 0.1-0.8 0.7 0 0.4 0.4 0.8l5.5 5.6-1.3 7.8q-0.1 0.3-0.1 0.3 0 0.4 0.2 0.6 0.1 0.2 0.5 0.2 0.2 0 0.6-0.2l6.7-3.7 6.8 3.7q0.3 0.2 0.6 0.2 0.3 0 0.4-0.2 0.2-0.2 0.2-0.6 0-0.2 0-0.3l-1.3-7.8 5.4-5.6q0.4-0.4 0.4-0.8 0-0.6-0.8-0.7zm86 21l-3.4-7.2q-0.3-0.6-0.8-0.6-0.4 0-0.7 0.6l-3.4 7.2-7.5 1.1q-0.9 0.2-0.9 0.8 0 0.3 0.4 0.7l5.5 5.6-1.3 7.9q0 0.2 0 0.3 0 0.3 0.1 0.6 0.2 0.2 0.5 0.2 0.3 0 0.6-0.2l6.7-3.7 6.8 3.7q0.3 0.2 0.6 0.2 0.3 0 0.5-0.2 0.1-0.3 0.1-0.6 0-0.2 0-0.3l-1.3-7.9 5.5-5.6q0.3-0.4 0.3-0.7 0-0.6-0.8-0.8zm43-37l-3.4-7.1q-0.3-0.7-0.7-0.7-0.5 0-0.7 0.7l-3.4 7.1-7.6 1.2q-0.8 0.1-0.8 0.7 0 0.4 0.4 0.8l5.4 5.6-1.3 7.8q0 0.3 0 0.3 0 0.4 0.2 0.6 0.1 0.2 0.4 0.2 0.3 0 0.6-0.2l6.8-3.7 6.7 3.7q0.4 0.2 0.6 0.2 0.3 0 0.5-0.2 0.2-0.2 0.2-0.6 0-0.2-0.1-0.3l-1.3-7.8 5.5-5.6q0.4-0.4 0.4-0.8 0-0.6-0.9-0.7zm72 40l-3.3-7.2q-0.3-0.6-0.8-0.6-0.4 0-0.7 0.6l-3.4 7.2-7.5 1.1q-0.9 0.2-0.9 0.8 0 0.3 0.4 0.7l5.5 5.6-1.3 7.9q0 0.2 0 0.3 0 0.3 0.1 0.6 0.2 0.2 0.5 0.2 0.3 0 0.6-0.2l6.7-3.7 6.8 3.7q0.3 0.2 0.6 0.2 0.3 0 0.4-0.2 0.2-0.3 0.2-0.6 0-0.2 0-0.3l-1.3-7.9 5.4-5.6q0.4-0.4 0.4-0.7 0-0.6-0.8-0.8zm19-58l-3.4-7.1q-0.3-0.7-0.7-0.7-0.5 0-0.8 0.7l-3.3 7.1-7.6 1.2q-0.8 0.1-0.8 0.7 0 0.4 0.3 0.8l5.5 5.6-1.3 7.8q0 0.3 0 0.3 0 0.4 0.2 0.6 0.1 0.2 0.4 0.2 0.3 0 0.6-0.2l6.8-3.7 6.7 3.7q0.3 0.2 0.6 0.2 0.3 0 0.5-0.2 0.1-0.2 0.1-0.6 0-0.2 0-0.3l-1.3-7.8 5.5-5.6q0.4-0.4 0.4-0.8 0-0.6-0.9-0.7zm-90 69l-3.3-7.2q-0.3-0.6-0.8-0.6-0.4 0-0.7 0.6l-3.4 7.2-7.5 1.1q-0.9 0.2-0.9 0.8 0 0.3 0.4 0.7l5.5 5.6-1.3 7.9q-0.1 0.2-0.1 0.3 0 0.3 0.2 0.6 0.2 0.2 0.5 0.2 0.2 0 0.6-0.2l6.7-3.7 6.8 3.7q0.3 0.2 0.6 0.2 0.3 0 0.4-0.2 0.2-0.3 0.2-0.6 0-0.2 0-0.3l-1.3-7.9 5.4-5.6q0.4-0.4 0.4-0.7 0-0.6-0.8-0.8zm-105-2l-3.4-7.1q-0.3-0.7-0.7-0.7-0.5 0-0.8 0.7l-3.4 7.1-7.5 1.2q-0.8 0.1-0.8 0.7 0 0.4 0.3 0.8l5.5 5.6-1.3 7.8q0 0.3 0 0.3 0 0.4 0.1 0.6 0.2 0.2 0.5 0.2 0.3 0 0.6-0.2l6.8-3.7 6.7 3.7q0.3 0.2 0.6 0.2 0.3 0 0.5-0.2 0.1-0.2 0.1-0.6 0-0.2 0-0.3l-1.3-7.8 5.5-5.6q0.4-0.4 0.4-0.8 0-0.6-0.9-0.7zm61-81l-3.4-7.2q-0.2-0.6-0.7-0.6-0.5 0-0.7 0.6l-3.4 7.2-7.6 1.1q-0.8 0.2-0.8 0.8 0 0.3 0.4 0.7l5.4 5.6-1.2 7.9q-0.1 0.2-0.1 0.3 0 0.3 0.2 0.6 0.1 0.2 0.5 0.2 0.2 0 0.6-0.2l6.7-3.7 6.7 3.7q0.4 0.2 0.6 0.2 0.3 0 0.5-0.2 0.2-0.3 0.2-0.6 0-0.2-0.1-0.3l-1.2-7.9 5.4-5.6q0.4-0.4 0.4-0.7 0-0.6-0.8-0.8zm161 45l-3.4-7.1q-0.3-0.7-0.8-0.7-0.4 0-0.7 0.7l-3.4 7.1-7.5 1.2q-0.9 0.1-0.9 0.7 0 0.4 0.4 0.8l5.5 5.6-1.3 7.8q0 0.3 0 0.3 0 0.4 0.1 0.6 0.2 0.2 0.5 0.2 0.3 0 0.6-0.2l6.7-3.7 6.8 3.7q0.3 0.2 0.6 0.2 0.3 0 0.4-0.2 0.2-0.2 0.2-0.6 0-0.2 0-0.3l-1.3-7.8 5.5-5.6q0.3-0.4 0.3-0.8 0-0.6-0.8-0.7z"/>
</svg>