<svg version="1.2" xmlns="http://www.w3.org/2000/svg" viewBox="0 0 800 1000" width="800" height="1000">
	<title>z-template-tank-svg</title>
	<style>
		.s0 { fill: #6ba7bb;stroke: #000000 } 
		.s1 { fill: #ce3636;stroke: #000000 } 
	</style>
	<path id="Layer" class="s0" d="m531 531.5c0 8.2-0.3 10.8-1.6 12-1.4 1.3-17.1 1.5-129.5 1.5-112.4 0-128.1-0.2-129.4-1.5-1.1-1.1-1.5-3.9-1.5-11.5 0-6-0.4-10-1-10-0.6 0-3 1.4-5.5 3-2.5 1.6-4.7 3.7-5 4.5-0.3 0.8 1.3 4.4 3.5 8 2.9 4.8 3.8 7.1 3.3 8.8-0.4 1.2-13.4 22.2-28.9 46.7l-28.3 44.5c-0.1 35.1 0.2 38.8 1.4 40 1.3 1.3 23.9 1.5 191.4 1.5 167.5 0 190.1-0.2 191.5-1.5 1.3-1.3 1.6-4.5 1.6-20.3v-18.7c-22.7-35.6-35.6-55.9-43.2-68-7.6-12.1-13.8-22.7-13.8-23.5 0-0.8 2-4.6 4.4-8.5 3.6-5.6 4.2-7.3 3.3-8.4-0.7-0.8-3.3-3.2-5.9-5.3-2.7-2.1-5.3-3.8-5.8-3.8-0.6 0-1 4.2-1 10.5z"/>
	<path id="Shape 1" fill-rule="evenodd" class="s1" d="m434.5 614.2l-34.8 33.3-34.8-33.4q-11.2-11.2-11.2-21.2 0-4.8 1.3-8.5 1.3-3.7 3.3-5.9 2-2.2 4.8-3.5 2.9-1.4 5.7-1.9 2.7-0.5 5.9-0.5 3.1 0 6.7 1.6 3.6 1.5 6.6 3.8 3 2.3 5.2 4.3 2.1 2 3.6 3.6 1.1 1.4 2.9 1.4 1.9 0 3-1.4 1.4-1.6 3.6-3.6 2.1-2 5.1-4.3 3.1-2.3 6.7-3.8 3.6-1.6 6.7-1.6 3.1 0 5.9 0.5 2.7 0.5 5.6 1.9 2.9 1.3 4.9 3.5 2 2.2 3.3 5.9 1.3 3.7 1.3 8.5 0 10-11.3 21.3zm11.3-41.8q-7.6-7.4-21-7.4-3.7 0-7.6 1.3-3.9 1.3-7.2 3.4-3.3 2.2-5.7 4.1-2.4 1.9-4.6 4.1-2.1-2.2-4.5-4.1-2.4-1.9-5.8-4.1-3.3-2.1-7.2-3.4-3.8-1.3-7.5-1.3-13.5 0-21.1 7.4-7.6 7.4-7.6 20.5 0 4 1.4 8.3 1.4 4.2 3.2 7.2 1.8 3 4.1 5.8 2.3 2.8 3.3 3.9 1.1 1.1 1.7 1.6l37.4 35.9q1.1 1 2.6 1 1.6 0 2.7-1l37.3-35.8q13.7-13.7 13.7-26.9 0-13.1-7.6-20.5z"/>
</svg>