<svg version="1.2" xmlns="http://www.w3.org/2000/svg" viewBox="0 0 800 1000" width="800" height="1000">
	<title>grey-shirt-svg</title>
	<style>
		.s0 { fill: #bb44ff } 
		.s1 { fill: #616ddc } 
	</style>
	<path id="Shape 11 copy 2" class="s0" d="m592.7 641.4l0.2 36.6h-385.5l0.3-41.1 58.2-91.6h267.5z"/>
	<path id="right-sleeve copy 2" class="s0" d="m630.8 635l-10 37-35-7-85.8-117.8 18-27 10.5-4 13.3 8.8z"/>
	<path id="Shape 13 copy 3" class="s0" d="m169 635l10 37 35-7 85.8-117.8-18-27-10.5-4-13.3 8.8z"/>
	<path id="Shape 11 copy" fill-rule="evenodd" class="s1" d="m592.9 678h-385.5l0.1-11.7-28.5 5.7-10-37 20.8-25.7-0.2 1.6q-0.1 0.2-0.1 0.3 0 0.3 0.2 0.6 0.1 0.2 0.5 0.2 0.2 0 0.6-0.2l6.7-3.7 6.7 3.7q0.4 0.2 0.6 0.2 0.3 0 0.5-0.2 0.2-0.3 0.2-0.6 0-0.2-0.1-0.3l-1.2-7.9 5.4-5.6q0.4-0.4 0.4-0.7 0-0.6-0.8-0.7l-7.6-1.2v-0.1l39.5-48.9 1.4-0.7 6.7 3.7q0.4 0.2 0.6 0.2 0.3 0 0.5-0.2 0.2-0.3 0.2-0.6 0-0.2-0.1-0.3l-1.2-7.9 5.4-5.6q0.4-0.4 0.4-0.7 0-0.6-0.8-0.7l-2.4-0.4 6.2-7.6 13.3-8.8 10.5 4 16.7 25.1h202.8l16.7-25.1 10.5-4 13.3 8.8 32.7 40.5-0.1 0.3-7.6 1.2q-0.8 0.1-0.8 0.7 0 0.3 0.4 0.7l5.4 5.6-1.2 7.9q-0.1 0.2-0.1 0.3 0 0.3 0.2 0.6 0.1 0.2 0.5 0.2 0.2 0 0.6-0.2l6.7-3.7 6.7 3.7q0.4 0.2 0.6 0.2 0.3 0 0.5-0.2 0.2-0.3 0.2-0.6 0-0.2-0.1-0.3l-0.3-2.2 44.7 55.3-10 37-28-5.6zm-313.2-67.2l-3.4-7.1q-0.3-0.7-0.8-0.7-0.4 0-0.7 0.7l-3.4 7.1-7.5 1.2q-0.9 0.1-0.9 0.7 0 0.3 0.4 0.8l5.5 5.5-1.3 7.9q0 0.2 0 0.3 0 0.4 0.1 0.6 0.2 0.2 0.5 0.2 0.3 0 0.6-0.2l6.7-3.7 6.8 3.7q0.3 0.2 0.6 0.2 0.3 0 0.4-0.2 0.2-0.2 0.2-0.6 0-0.2 0-0.3l-1.3-7.9 5.4-5.5q0.4-0.5 0.4-0.8 0-0.6-0.8-0.7zm112 3l-3.4-7.2q-0.3-0.6-0.7-0.6-0.5 0-0.8 0.6l-3.3 7.2-7.6 1.1q-0.8 0.2-0.8 0.7 0 0.4 0.4 0.8l5.4 5.6-1.3 7.9q0 0.2 0 0.3 0 0.3 0.2 0.5 0.1 0.3 0.4 0.3 0.3 0 0.6-0.2l6.8-3.7 6.7 3.7q0.3 0.2 0.6 0.2 0.3 0 0.5-0.3 0.1-0.2 0.1-0.5 0-0.2 0-0.3l-1.3-7.9 5.5-5.6q0.4-0.4 0.4-0.8 0-0.5-0.9-0.7zm-68-34l-3.3-7.1q-0.3-0.7-0.8-0.7-0.4 0-0.7 0.7l-3.4 7.1-7.5 1.2q-0.9 0.1-0.9 0.7 0 0.3 0.4 0.8l5.5 5.5-1.3 7.9q-0.1 0.2-0.1 0.3 0 0.4 0.2 0.6 0.2 0.2 0.5 0.2 0.2 0 0.6-0.2l6.7-3.7 6.8 3.7q0.3 0.2 0.6 0.2 0.3 0 0.4-0.2 0.2-0.2 0.2-0.6 0-0.2 0-0.3l-1.3-7.9 5.4-5.5q0.4-0.5 0.4-0.8 0-0.6-0.8-0.7zm112-15l-3.4-7.2q-0.3-0.6-0.7-0.6-0.5 0-0.8 0.6l-3.4 7.2-7.5 1.1q-0.8 0.2-0.8 0.7 0 0.4 0.3 0.8l5.5 5.6-1.3 7.9q0 0.2 0 0.3 0 0.3 0.1 0.5 0.2 0.3 0.5 0.3 0.3 0 0.6-0.2l6.8-3.7 6.7 3.7q0.3 0.2 0.6 0.2 0.3 0 0.5-0.3 0.1-0.2 0.1-0.5 0-0.2 0-0.3l-1.3-7.9 5.5-5.6q0.4-0.4 0.4-0.8 0-0.5-0.9-0.7zm95 39l-3.4-7.1q-0.2-0.7-0.7-0.7-0.4 0-0.7 0.7l-3.4 7.1-7.6 1.2q-0.8 0.1-0.8 0.7 0 0.3 0.4 0.8l5.4 5.5-1.2 7.9q-0.1 0.2-0.1 0.3 0 0.4 0.2 0.6 0.1 0.2 0.5 0.2 0.2 0 0.6-0.2l6.7-3.7 6.8 3.7q0.3 0.2 0.6 0.2 0.3 0 0.4-0.2 0.2-0.2 0.2-0.6 0-0.2 0-0.3l-1.3-7.9 5.4-5.5q0.4-0.5 0.4-0.8 0-0.6-0.8-0.7zm-290-6l-3.4-7.2q-0.3-0.6-0.8-0.6-0.4 0-0.7 0.6l-3.4 7.2-7.5 1.1q-0.9 0.2-0.9 0.7 0 0.4 0.4 0.8l5.5 5.6-1.3 7.9q0 0.2 0 0.3 0 0.3 0.1 0.5 0.2 0.3 0.5 0.3 0.3 0 0.6-0.2l6.7-3.7 6.8 3.7q0.3 0.2 0.6 0.2 0.3 0 0.5-0.3 0.1-0.2 0.1-0.5 0-0.2 0-0.3l-1.3-7.9 5.5-5.6q0.3-0.4 0.3-0.8 0-0.5-0.8-0.7zm86 52l-3.4-7.1q-0.3-0.7-0.7-0.7-0.5 0-0.7 0.7l-3.4 7.1-7.6 1.2q-0.8 0.1-0.8 0.7 0 0.3 0.4 0.8l5.4 5.5-1.3 7.9q0 0.2 0 0.3 0 0.4 0.2 0.6 0.1 0.2 0.4 0.2 0.3 0 0.6-0.2l6.8-3.7 6.7 3.7q0.4 0.2 0.6 0.2 0.3 0 0.5-0.2 0.2-0.2 0.2-0.6 0-0.2-0.1-0.3l-1.3-7.9 5.5-5.5q0.4-0.5 0.4-0.8 0-0.6-0.9-0.7zm-48-99l-3.3-7.2q-0.3-0.6-0.8-0.6-0.4 0-0.7 0.6l-3.4 7.2-7.5 1.1q-0.9 0.2-0.9 0.7 0 0.4 0.4 0.8l5.5 5.6-1.3 7.9q0 0.2 0 0.3 0 0.3 0.1 0.5 0.2 0.3 0.5 0.3 0.3 0 0.6-0.2l6.7-3.7 6.8 3.7q0.3 0.2 0.6 0.2 0.3 0 0.4-0.3 0.2-0.2 0.2-0.5 0-0.2 0-0.3l-1.3-7.9 5.4-5.6q0.4-0.4 0.4-0.8 0-0.5-0.8-0.7zm-48 92l-3.4-7.1q-0.3-0.7-0.7-0.7-0.5 0-0.8 0.7l-3.3 7.1-7.6 1.2q-0.8 0.1-0.8 0.7 0 0.3 0.3 0.8l5.5 5.5-1.3 7.9q0 0.2 0 0.3 0 0.4 0.2 0.6 0.1 0.2 0.4 0.2 0.3 0 0.6-0.2l6.8-3.7 6.7 3.7q0.3 0.2 0.6 0.2 0.3 0 0.5-0.2 0.1-0.2 0.1-0.6 0-0.2 0-0.3l-1.3-7.9 5.5-5.5q0.4-0.5 0.4-0.8 0-0.6-0.9-0.7zm173 3l-3.3-7.2q-0.3-0.6-0.8-0.6-0.4 0-0.7 0.6l-3.4 7.2-7.5 1.1q-0.9 0.2-0.9 0.7 0 0.4 0.4 0.8l5.5 5.6-1.3 7.9q-0.1 0.2-0.1 0.3 0 0.3 0.2 0.5 0.2 0.3 0.5 0.3 0.2 0 0.6-0.2l6.7-3.7 6.8 3.7q0.3 0.2 0.6 0.2 0.3 0 0.4-0.3 0.2-0.2 0.2-0.5 0-0.2 0-0.3l-1.3-7.9 5.4-5.6q0.4-0.4 0.4-0.8 0-0.5-0.8-0.7zm-31-89l-3.4-7.1q-0.3-0.7-0.7-0.7-0.5 0-0.8 0.7l-3.4 7.1-7.5 1.2q-0.8 0.1-0.8 0.7 0 0.3 0.3 0.8l5.5 5.5-1.3 7.9q0 0.2 0 0.3 0 0.4 0.1 0.6 0.2 0.2 0.5 0.2 0.3 0 0.6-0.2l6.8-3.7 6.7 3.7q0.3 0.2 0.6 0.2 0.3 0 0.5-0.2 0.1-0.2 0.1-0.6 0-0.2 0-0.3l-1.3-7.9 5.5-5.5q0.4-0.5 0.4-0.8 0-0.6-0.9-0.7zm84 50l-3.4-7.2q-0.2-0.6-0.7-0.6-0.5 0-0.7 0.6l-3.4 7.2-7.6 1.1q-0.8 0.2-0.8 0.7 0 0.4 0.4 0.8l5.4 5.6-1.2 7.9q-0.1 0.2-0.1 0.3 0 0.3 0.2 0.5 0.1 0.3 0.5 0.3 0.2 0 0.6-0.2l6.7-3.7 6.7 3.7q0.4 0.2 0.6 0.2 0.3 0 0.5-0.3 0.2-0.2 0.2-0.5 0-0.2-0.1-0.3l-1.2-7.9 5.4-5.6q0.4-0.4 0.4-0.8 0-0.5-0.8-0.7zm45 42l-3.4-7.1q-0.3-0.7-0.8-0.7-0.4 0-0.7 0.7l-3.4 7.1-7.5 1.2q-0.9 0.1-0.9 0.7 0 0.3 0.4 0.8l5.5 5.5-1.3 7.9q0 0.2 0 0.3 0 0.4 0.1 0.6 0.2 0.2 0.5 0.2 0.3 0 0.6-0.2l6.7-3.7 6.8 3.7q0.3 0.2 0.6 0.2 0.3 0 0.4-0.2 0.2-0.2 0.2-0.6 0-0.2 0-0.3l-1.3-7.9 5.5-5.5q0.3-0.5 0.3-0.8 0-0.6-0.8-0.7zm-6-93l-3.4-7.2q-0.3-0.6-0.7-0.6-0.5 0-0.8 0.6l-3.3 7.2-7.6 1.1q-0.8 0.2-0.8 0.7 0 0.4 0.4 0.8l5.4 5.6-1.3 7.9q0 0.2 0 0.3 0 0.3 0.2 0.5 0.1 0.3 0.4 0.3 0.3 0 0.6-0.2l6.8-3.7 6.7 3.7q0.3 0.2 0.6 0.2 0.3 0 0.5-0.3 0.1-0.2 0.1-0.5 0-0.2 0-0.3l-1.3-7.9 5.5-5.6q0.4-0.4 0.4-0.8 0-0.5-0.9-0.7zm62 85l-3.3-7.1q-0.3-0.7-0.8-0.7-0.4 0-0.7 0.7l-3.4 7.1-7.5 1.2q-0.9 0.1-0.9 0.7 0 0.3 0.4 0.8l5.5 5.5-1.3 7.9q-0.1 0.2-0.1 0.3 0 0.3 0.2 0.6 0.2 0.2 0.5 0.2 0.2 0 0.6-0.2l6.7-3.7 6.8 3.7q0.3 0.2 0.6 0.2 0.3 0 0.4-0.2 0.2-0.3 0.2-0.6 0-0.2 0-0.3l-1.3-7.9 5.4-5.5q0.4-0.5 0.4-0.8 0-0.6-0.8-0.7zm40-18l-3.4-7.2q-0.3-0.6-0.7-0.6-0.5 0-0.8 0.6l-3.3 7.2-7.6 1.1q-0.8 0.2-0.8 0.7 0 0.4 0.3 0.8l5.5 5.6-1.3 7.9q0 0.2 0 0.3 0 0.3 0.1 0.5 0.2 0.3 0.5 0.3 0.3 0 0.6-0.2l6.8-3.7 6.7 3.7q0.3 0.2 0.6 0.2 0.3 0 0.5-0.3 0.1-0.2 0.1-0.5 0-0.2 0-0.3l-1.3-7.9 5.5-5.6q0.4-0.4 0.4-0.8 0-0.5-0.9-0.7zm-63-93l-3.4-7.1q-0.2-0.7-0.7-0.7-0.4 0-0.7 0.7l-3.4 7.1-7.5 1.2q-0.9 0.1-0.9 0.7 0 0.3 0.4 0.8l5.5 5.5-1.3 7.9q-0.1 0.2-0.1 0.3 0 0.3 0.2 0.6 0.1 0.2 0.5 0.2 0.2 0 0.6-0.2l6.7-3.7 6.8 3.7q0.3 0.2 0.6 0.2 0.3 0 0.4-0.2 0.2-0.3 0.2-0.6 0-0.2 0-0.3l-1.3-7.9 5.4-5.5q0.4-0.5 0.4-0.8 0-0.6-0.8-0.7zm-261 119l-3.4-7.2q-0.3-0.6-0.7-0.6-0.5 0-0.8 0.6l-3.4 7.2-7.5 1.1q-0.8 0.2-0.8 0.7 0 0.4 0.3 0.8l5.5 5.6-1.3 7.9q0 0.2 0 0.3 0 0.3 0.1 0.5 0.2 0.3 0.5 0.3 0.3 0 0.6-0.2l6.8-3.7 6.7 3.7q0.3 0.2 0.6 0.2 0.3 0 0.5-0.3 0.1-0.2 0.1-0.5 0-0.2 0-0.3l-1.3-7.9 5.5-5.6q0.4-0.4 0.4-0.8 0-0.5-0.9-0.7zm66-42l-3.4-7.1q-0.3-0.7-0.7-0.7-0.5 0-0.7 0.7l-3.4 7.1-7.6 1.2q-0.8 0.1-0.8 0.7 0 0.3 0.4 0.8l5.4 5.5-1.3 7.9q0 0.2 0 0.3 0 0.3 0.2 0.6 0.1 0.2 0.4 0.2 0.3 0 0.6-0.2l6.8-3.7 6.7 3.7q0.4 0.2 0.6 0.2 0.3 0 0.5-0.2 0.2-0.3 0.2-0.6 0-0.2-0.1-0.3l-1.3-7.9 5.5-5.5q0.4-0.5 0.4-0.8 0-0.6-0.8-0.7z"/>
</svg>