<svg version="1.2" xmlns="http://www.w3.org/2000/svg" viewBox="0 0 800 1000" width="800" height="1000">
	<title>z-template-tank-svg</title>
	<style>
		.s0 { fill: #6ba7bb;stroke: #000000 } 
		.s1 { fill: #000000;stroke: #000000 } 
	</style>
	<path id="Layer" class="s0" d="m531 531.5c0 8.2-0.3 10.8-1.6 12-1.4 1.3-17.1 1.5-129.5 1.5-112.4 0-128.1-0.2-129.4-1.5-1.1-1.1-1.5-3.9-1.5-11.5 0-6-0.4-10-1-10-0.6 0-3 1.4-5.5 3-2.5 1.6-4.7 3.7-5 4.5-0.3 0.8 1.3 4.4 3.5 8 2.9 4.8 3.8 7.1 3.3 8.8-0.4 1.2-13.4 22.2-28.9 46.7l-28.3 44.5c-0.1 35.1 0.2 38.8 1.4 40 1.3 1.3 23.9 1.5 191.4 1.5 167.5 0 190.1-0.2 191.5-1.5 1.3-1.3 1.6-4.5 1.6-20.3v-18.7c-22.7-35.6-35.6-55.9-43.2-68-7.6-12.1-13.8-22.7-13.8-23.5 0-0.8 2-4.6 4.4-8.5 3.6-5.6 4.2-7.3 3.3-8.4-0.7-0.8-3.3-3.2-5.9-5.3-2.7-2.1-5.3-3.8-5.8-3.8-0.6 0-1 4.2-1 10.5z"/>
	<path id="Shape 1" fill-rule="evenodd" class="s1" d="m393.5 575q-2.1-5.6-6.6-9.8-4.5-4.2-10.1-4.2-4.4 0-7.6 2.8-3.2 2.9-4.6 6.8-1.4 3.9-1.4 8.3 0 5.3 2.2 11 2.2 5.7 6.7 9.9 4.5 4.1 10 4.1 4.5 0 7.7-2.8 3.2-2.8 4.5-6.7 1.4-3.9 1.4-8.3 0-5.4-2.2-11.1zm-25.2 35.2q-2.5-5.7-7.3-9.8-4.8-4-10.3-4-5.6 0-8.6 4.3-3.1 4.3-3.1 10.2 0 5.4 2.5 11.1 2.6 5.6 7.4 9.7 4.7 4 10.2 4 5.6 0 8.7-4.3 3-4.3 3-10.1 0-5.4-2.5-11.1zm17.2 13.4q-7.6 4.3-13.7 10.7-6 6.3-10.1 14-4.1 7.7-4.1 14 0 10.6 13.3 10.6 5.4 0 14.6-3.2 9.2-3.3 14-3.3 4.6 0 13.3 3.3 8.7 3.3 13.6 3.3 3.1 0 5.5-0.4 2.4-0.4 4.7-1.5 2.3-1 3.5-3.2 1.3-2.3 1.3-5.6 0-8.4-6.7-18.6-6.7-10.1-16.7-17.3-9.9-7.1-18.5-7.1-6.5 0-14 4.3zm41.4-23.8q4.5-4.2 6.7-9.9 2.2-5.7 2.2-11 0-4.4-1.4-8.3-1.4-3.9-4.6-6.8-3.2-2.8-7.6-2.8-5.6 0-10.1 4.2-4.5 4.2-6.6 9.8-2.2 5.7-2.2 11.1 0 4.4 1.4 8.3 1.3 3.9 4.5 6.7 3.2 2.8 7.7 2.8 5.5 0 10-4.1zm11.1 0.6q-4.8 4.1-7.3 9.8-2.6 5.7-2.5 11.1 0 5.8 3 10.1 3.1 4.3 8.7 4.3 5.5 0 10.2-4 4.8-4.1 7.4-9.7 2.5-5.7 2.5-11.1 0-5.9-3.1-10.2-3-4.3-8.6-4.3-5.5 0-10.3 4z"/>
</svg>