<svg version="1.2" xmlns="http://www.w3.org/2000/svg" viewBox="0 0 1000 1000" width="1000" height="1000">
	<title>New Project</title>
	<defs>
		<linearGradient id="g1" x1="501.5" y1="1000" x2="501.5" y2="0" gradientUnits="userSpaceOnUse">
			<stop offset="0" stop-color="#5fb9e9"/>
			<stop offset="1" stop-color="#178cd3"/>
		</linearGradient>
		<linearGradient id="g2" x1="499.1" y1="1023.5" x2="499.1" y2="887.8" gradientUnits="userSpaceOnUse">
			<stop offset="0" stop-color="#47c51d"/>
			<stop offset="1" stop-color="#6dc272"/>
		</linearGradient>
		<linearGradient id="g3" x1="493.5" y1="1026.7" x2="493.5" y2="883.7" gradientUnits="userSpaceOnUse">
			<stop offset="0" stop-color="#359c13"/>
			<stop offset="1" stop-color="#5c9a47"/>
		</linearGradient>
		<linearGradient id="g4" x1="372" y1="229.7" x2="812" y2="444.3" gradientUnits="userSpaceOnUse">
			<stop offset="0" stop-color="#ffe981"/>
			<stop offset="1" stop-color="#ffe153"/>
		</linearGradient>
	</defs>
	<style>
		.s0 { fill: url(#g1) } 
		.s1 { fill: url(#g2) } 
		.s2 { fill: url(#g3) } 
		.s3 { fill: #ff941b } 
		.s4 { fill: #ffe153 } 
		.s5 { fill: #ffe981 } 
		.s6 { fill: url(#g4) } 
		.s7 { fill: #49442c } 
		.s8 { fill: #000000;stroke: #000000;stroke-width: 9.2 } 
		.s9 { fill: #ffffff } 
		.s10 { fill: #000000 } 
		.s11 { fill: #5fd6ff } 
	</style>
	<path id="Shape 3" class="s0" d="m0 0h1003v1000h-1003z"/>
	<path id="Shape 2" class="s1" d="m-8.8 926.7c17.1-21.5 101.9-37.8 137.8-38 35.9-0.2 93.7 18 155.3 20.2 61.5 2.2 96.8-18.1 152.3-20.8 55.4-2.7 108.7 17.2 144.3 12.8 19.5-2.4 124.7-9.5 283.7-3 45.2 1.8 141.2 34.2 141.2 34.2 0 0 22.4 57.2 1.6 76.6-20.8 19.3-978.3 15.9-1007.2 10.7-29-5.1-16.4-83.4-9-92.7z"/>
	<path id="Shape 1" class="s2" d="m-12.3 951.2c0 0 60.9-41 127.5-50 66.6-9 155.8 21.5 201.1 20 45.4-1.5 124.6-19.7 197.4-35 72.9-15.2 478.2 44 484.8 65 6.6 21 21.3 66.5 5 71.2-16.2 4.8-998.6 7.5-1015.8-2.5-17.1-10-14.1-48.5 0-68.7z"/>
	<g id="Folder 3">
		<path id="Shape 8" class="s3" d="m556.3 902.9l-25.6-1.7-34.7 35.5 41 18.8z"/>
		<path id="Shape 8 copy" class="s3" d="m529.3 760h27v144h-27z"/>
	</g>
	<g id="Folder 3 copy">
		<path id="Shape 8" class="s3" d="m628 902.9l25.6-1.7 34.7 35.5-41 18.8z"/>
		<path id="Shape 8 copy" class="s3" d="m628 760h27v144h-27z"/>
	</g>
	<path id="Shape 9" class="s4" d="m855.7 676.4l-120.5-145-15.5 122.5z"/>
	<path id="Shape 9 copy" class="s4" d="m328.7 676.4l120.5-145 15.5 122.5z"/>
	<path id="Shape 4" class="s4" d="m592.2 773.5c-106.3 0-192.2-8-192.2-114.3 0-106.3 85.9-192.2 192.2-192.2 106.3 0 192.3 85.9 192.3 192.2 0 106.3-86 114.3-192.3 114.3z"/>
	<path id="Shape 6" class="s5" d="m640.7 155.4h-44.5l-41.1-5.7 7.1-2.8 80-63-25 52 50-27z"/>
	<path id="Shape 5" class="s6" d="m592 533c-121.7 0-220-29.3-220-151 0-121.7 98.3-241 220-241 121.7 0 220 119.3 220 241 0 121.7-98.3 151-220 151z"/>
	<g id="Folder 1">
		<path id="Shape 7 copy" class="s7" d="m514.2 355.2c-15 0-27.2-9.2-27.2-20.6 0-11.4 12.2-20.6 27.2-20.6 15.1 0 27.2 9.2 27.2 20.6 0 11.4-12.1 20.6-27.2 20.6z"/>
		<path id="Shape 7 copy 3" class="s7" d="m669.8 355.2c-15.1 0-27.2-9.2-27.2-20.6 0-11.4 12.1-20.6 27.2-20.6 15 0 27.2 9.2 27.2 20.6 0 11.4-12.2 20.6-27.2 20.6z"/>
	</g>
	<path id="Shape 10" class="s8" d="m343.3 696l-7.9 4.1-189.1-371.5 7.9-4.1z"/>
	<path id="Shape 11" class="s9" d="m8.3 420.1l289.8-133.3 104.6 227.1-289.8 133.3z"/>
	<path id="Shape 14" class="s3" d="m592.3 385.2c31-0.5 54.7 24.8 54.7 24.8l-55.2 27.2-54.2-27.2c0 0 20.7-24.3 54.7-24.8z"/>
	<path id="404 Page" class="s10" aria-label="404 Page"  d="m107 471l1.8 2.4q-2.9 1.8-4.2 2.5 1.4 2.7 3.5 6.8 2.1 4.1 3.4 6.7 0.3 2.2-1.2 2.8-1.1 0.5-2.5 0.1-1.4-0.5-2.2-1.6-0.8-1.9-5.2-12.4-1.8 1-3 1.5-1.8 0.8-5.6 2.3-3.8 1.5-5.6 2.3-0.8 0.4-2.2 1.1-0.5-1.5-0.8-2-0.1-0.4-0.6-1.1-0.3-0.8-0.5-1.3 2.3-21.3 4.8-32.3 1.9-0.8 5.5-1.5 1.1 2.8 5.1 12.4 4.1 9.4 5.4 12.8 2.7-1.1 4.1-1.5zm-20.5 8.3l12.2-5.1q-1.3-3.5-4.2-10.3-2.9-6.8-4.3-10.2-1.3 3.6-2.3 13.8-1 10-1.4 11.8zm23.6-12.8q-5.8-12.9-5.1-20.1 0.7-7.3 7.2-10.7 3-1.3 6-0.7 3 0.6 5.5 2.5 2.5 1.8 4.9 4.9 2.5 3 4.2 5.9 1.7 2.9 3.4 6.4 2.2 4.7 3 10.3 0.9 5.6-0.4 10.6-1.2 5-4.8 6.6-13.9 6.3-23.9-15.7zm3.4-25.8q-1.3 1-2.1 2.1-0.9 1.2-1.3 2.4-0.3 1.2-0.2 2.8 0.1 1.6 0.3 2.9 0.3 1.3 0.9 3.3 0.6 1.9 1.2 3.3 0.6 1.3 1.4 3.6 1 2.2 1.5 3.6 1.2 2.8 2.7 5.2 1.4 2.3 3.4 4.6 2 2.3 4.5 3.2 2.5 0.9 5.1 0.1 3.7-1.7 3.8-8 0.1-6.2-2.3-11.5-9.7-21.5-18.9-17.6zm50.9 4.2l1.8 2.4q-2.9 1.8-4.2 2.5 1.4 2.7 3.5 6.8 2.1 4.1 3.4 6.8 0.3 2.1-1.2 2.8-1.1 0.5-2.5 0-1.4-0.4-2.2-1.6-0.8-1.8-5.2-12.4-1.8 1-3 1.5-1.8 0.9-5.6 2.4-3.9 1.4-5.6 2.2-0.8 0.4-2.2 1.2-0.5-1.5-0.8-2.1-0.2-0.3-0.6-1.1-0.3-0.8-0.5-1.2 2.3-21.4 4.8-32.3 1.9-0.9 5.4-1.6 1.2 2.9 5.2 12.4 4.1 9.4 5.4 12.8 2.7-1.1 4.1-1.5zm-20.5 8.4l12.2-5.1q-1.4-3.5-4.2-10.3-2.9-6.8-4.3-10.3-1.3 3.6-2.4 13.8-1 10.1-1.3 11.9zm31.2-44.1l2.4-2q0.9 2 1 2.2 2.4-3.9 8.6-6.7 6.6-3 11.8-0.3 5.2 2.7 8.6 10.1 3 6.7 1.8 12.5-1.3 5.9-7.8 8.8-1.1 0.5-9 3.2 2.1 4.4 6.7 13.4 0.3 2.1-1.3 2.8-1 0.5-2.4 0.1-1.4-0.4-2.2-1.6-2.1-5.1-8.5-19.7-6.4-14.7-9.7-22.8zm5.8 3.9l9 18.5q4.1 0.3 8.4-1.6 4.1-1.9 5.6-6.3 1.4-4.5-0.6-9-2.2-4.8-7-7.3-4.7-2.6-9.2-0.5-3.7 1.6-6.2 6.2zm32.3-0.5l-2.6-2.5q0.8-2.3 2.8-4.3 2-2 4.3-3.1 10.1-4.6 18.1 12.9 1.1 2.4 2.9 7.2 1.9 4.8 2.9 7.1 0.4 2.1-1 2.7-1.1 0.5-2.5-0.1-1.3-0.7-1.9-2-0.2-0.5-0.3-0.7-2 5.3-6.2 7.2-3.2 1.5-6.6 0.3-3.4-1.3-4.9-4.6-2.6-5.6-0.3-12 2.4-6.5 7.9-9 0.2-0.1 0.5-0.2 0.2-0.1 0.5-0.1 0.4-0.1 0.6-0.2-3.7-6.8-8.8-4.5-2.9 1.4-5.4 5.9zm21 13q-1.8-4.2-2.8-6.4-0.8-1.8-2.4-4.9l-0.5 0.2q-4.2 2-6.3 6.7-2.1 4.7-0.1 9.1 0.9 1.9 2.6 2.6 1.7 0.6 3.4-0.2 2.6-1.2 6.1-7.1zm17.4-36.5l2.4-1.9q0.8 1.8 1.4 2.8 6.3 13 8.1 16.9 0.6 1.4 2 4.3 1.4 2.9 2.1 4.4 1.5 3.3 2.3 5.8 0.9 2.5 1.4 5.5 0.5 2.9 0 5.1-0.5 2.2-2.3 4.3-1.7 2.1-4.8 3.5-2.6 1.2-9.6 3.4-0.4-0.6-0.9-1.3-0.5-0.8-0.7-1.2-0.4-0.9-0.4-1.5 0.5-0.2 3.9-1.2 3.5-1.1 5-1.8 4.2-1.9 5.2-5.4 1.1-3.5-2-10.4-2.1 3-5.4 4.5-2.7 1.2-5.2 1-2.5-0.2-4.5-1.3-2-1.2-3.9-3.3-1.8-2.1-3.1-4.2-1.3-2.2-2.5-4.8-2.9-6.4-2.1-12.1 0.9-5.7 6.7-8.3 3.4-1.6 7.7-1-0.2-0.6-0.8-1.8zm10.7 25.4l-8.6-19.4q-0.9-1-3.1-0.7-2.1 0.2-4.4 1.2-3.2 1.5-3.7 5.3-0.4 3.8 1.5 8 1 2.2 2.2 4.3 1.2 2 3.1 4.2 1.9 2.2 4.2 3 2.3 0.8 4.7-0.2 1.8-0.9 2.9-2.4 1.1-1.6 1.2-3.3zm33-15l1.8 2.4q-2.2 2.1-6.9 5.7-4.6 3.5-7.1 4.6-2.6 1.2-5.3 0.4-2.7-0.9-4.8-3.1-2.2-2.3-3.9-4.6-1.6-2.5-2.7-5-6.8-15 6.7-21.1 3.2-1.5 6.6-0.5 3.4 0.9 4.9 4.2 0.8 1.8 0.4 3.7-0.3 1.8-1.3 3.3-1.1 1.4-3 3-1.8 1.7-3.4 2.7-1.5 1.1-3.7 2.5-2.2 1.4-3 2 0.9 1.7 1.6 3 0.8 1.2 1.9 2.6 1.1 1.3 2.3 2 1.2 0.6 2.9 0.6 1.6 0.1 3.4-0.7 2.1-1 5.1-2.8 2.9-1.8 5.1-3.3 2.3-1.6 2.4-1.6zm-26.1-3.6q7-6 11.1-11-1.3-1.8-2.5-2.3-1.1-0.6-2.5 0-3.7 1.7-5.5 5.6-1.8 3.8-0.6 7.7z"/>
	<path id="Not Found" class="s10" aria-label="Not Found"  d="m118.6 583.7l-18.5-42.9 3.3-1.5 37.5 29-2.2-4.8q-8.4-18.6-14.5-33.7l3.8-1q6.8 13.1 21.1 43.5-1 1.2-2.5 1.8-2.1 1-4.9 0.8-6.4-4.1-17-12.7-10.6-8.6-14.8-11.7 1.9 4.2 7 15.2 5.1 11.1 7.8 16.7 0.3 2.2-1.3 2.9-1.1 0.5-2.5 0.1-1.4-0.5-2.3-1.7zm29.4-27.1q-1.1-2.4-1.9-5.7-0.9-3.2-1.3-7-0.5-3.8 0.6-7 1.1-3.2 3.9-4.4 5.9-2.7 11.9 1 5.9 3.7 8.9 10.2 1.2 2.8 1.9 5.8 0.7 3 0.6 6.2 0 3.2-1.5 6-1.5 2.8-4.5 4.4-6 1.9-10.9-0.8-4.9-2.7-7.7-8.7zm3.1-21.1q-2.1 1.2-1.9 5.6 0.2 4.4 1.4 8.1 1.1 3.6 2.3 6.2 1.6 3.5 5 5.5 3.5 1.9 6.1 0.7 1.9-0.9 2.8-3 0.9-2.2 0.8-4.8-0.1-2.6-0.7-5-0.5-2.4-1.3-4.2-2.3-5-6.3-7.7-3.9-2.7-8.2-1.4zm34.3-15.9l1.9 2.4q-1.6 0.9-4.8 3-3.2 2.1-4.9 3 1.3 2 3 5.5 1.6 3.4 2.9 6 1.2 2.5 2.8 4.9 1.7 2.3 3.7 3 2.1 0.6 4.6-0.5 1.8-0.8 4.2-2.9 2.2 1.7 3.2 2.5-4.1 3.9-9.1 6.2-1.8 0.8-3.7 0.4-1.8-0.5-3.3-1.9-1.5-1.3-3.1-3.6-1.6-2.4-2.8-4.6-1.1-2.2-2.5-5.2-0.7-1.6-2-4.4-1.2-2.9-1.7-3.9-0.6 0.3-2.8 1.4-2.3 1.1-2.7 1.2-2.3-3.9-2.3-4 0.4-0.1 1.4-0.5 0.6-0.3 1.8-0.9 1.2-0.7 1.8-1 0.2-0.1 0.6-0.2 0.5-0.2 0.6-0.2-2.9-6.9-4.5-11.3l3.1-0.6q0.7 1.5 1.5 3.2 0.8 1.6 1.8 3.7 1 2 1.5 3.1 1.6-0.6 4.9-1.9 3.2-1.3 4.9-1.9zm42.5 15.9l0.5 0.9-5.8 2.2q-2.5-7.1-9.5-23-7.1-15.9-9.3-22.5 2.2-0.8 11.2-4.7 9.1-4 12.1-4.8l1.9 2.4q-2.5 1.8-10.5 6.2-8 4.5-8.4 4.7 0.7 1.4 2.8 5.7 2.3 4.3 3.6 7.1 2.2-0.8 8-2.8 5.7-2.1 7.2-2.6l1.9 2.5q-12.4 7.1-14.6 8.2l0.5 1q1 2.4 4.2 9.8 3.2 7.4 4.2 9.7zm12.6-20.8q-1.2-2.5-2-5.7-0.9-3.3-1.3-7.1-0.5-3.8 0.6-7 1.1-3.1 3.9-4.4 5.9-2.7 11.9 1.1 5.9 3.6 8.9 10.2 1.3 2.7 1.9 5.8 0.7 2.9 0.6 6.1 0 3.2-1.5 6.1-1.5 2.7-4.5 4.4-6 1.8-10.9-0.8-4.9-2.8-7.6-8.7zm3-21.2q-2.1 1.3-1.9 5.6 0.2 4.4 1.4 8.1 1.1 3.6 2.3 6.3 1.6 3.4 5 5.4 3.5 1.9 6.1 0.7 2-0.8 2.8-3 0.9-2.2 0.8-4.7-0.1-2.6-0.7-5.1-0.5-2.4-1.3-4.1-2.3-5.1-6.3-7.8-3.9-2.7-8.2-1.4zm35.3-17.7l3.2-0.8 0.3 0.6q1.9 4.2 6.9 14 5.1 9.7 7.9 14.9-1 1.1-2.1 1.6-1 0.4-2.3 0.7l-1.2-1.4q-3 4-6.5 5.6-2.7 1.2-5.2 0.9-2.5-0.4-4.3-1.7-1.9-1.4-3.7-3.7-1.9-2.5-3-4.5-1.2-2.2-2.4-4.9-3.6-7.9-5.6-14.9l3.1-0.7q1.3 1.9 2.4 4.3 0.6 1.3 1.9 4.7 1.4 3.4 2.2 5.1 1.4 3.1 2.6 5.2 1.3 2 3 3.7 1.7 1.7 3.8 2.1 2.1 0.4 4.5-0.7 2.7-1.3 5.3-3.9-0.9-2.3-5-11.8-4.2-9.4-5.8-14.4zm16.4 0.1l11.3 24.3q-0.7 0.9-2 1.5-1 0.4-2.3 0.7-1.6-4-6.7-15.4-5.1-11.4-7.2-17.1l3.1-0.6 1.7 3.3q1.7-4.9 6-6.8 2.1-1 3.6-1.3 1.4-0.3 3.1 0.4 1.8 0.7 3.3 2.3 1.5 1.7 3.7 5.2 2.1 3.4 4.5 8.2 2.5 4.8 5.9 12.2-0.3 0.3-1.3 0.8-2.3 1-3.7 1-0.7-0.9-1.8-3.2-0.5-1.1-1.9-4.4-1.3-3.3-2.2-5.1-1.3-2.9-2.5-5-1.2-2.1-2.8-4-1.6-1.9-3.3-2.5-1.7-0.7-3.5 0.1-2 1-3.1 1.8-0.9 0.8-1.2 1.5-0.3 0.6-0.7 2.1zm34.6-42.7l21.3 49-3.7 0.8q-0.5-1.2-0.9-1.8-2.3 3.6-5.9 5.2-5.6 2.6-10.9-0.8-5.3-3.4-8.1-9.5-1.4-3.1-2.2-6.1-0.8-3-1-6.4-0.2-3.5 1.5-6.3 1.6-2.8 5.1-4.4 3.4-1.5 7.1-1.2-2.5-6.8-5.5-13.4-1.4-3-2.1-4.4 3.2-0.8 5.3-0.7zm14.4 44.2l-9.2-19.8q-1.4-1.2-3.4-1.3-2-0.2-3.8 0.6-2.4 1.1-3.4 3.4-1 2.3-0.5 5.2 0.4 2.8 1.1 5.2 0.8 2.3 1.9 4.8 4.8 10.4 11.8 7.2 2.3-1 4-2.5 1.6-1.6 1.5-2.8z"/>
	<path id="Shape 12" class="s11" d="m684 444c-13.3 0-24-10.7-24-24 0-13.3 10.7-24 24-24 13.3 0 24 10.7 24 24 0 13.3-10.7 24-24 24z"/>
	<path id="Shape 13" class="s11" d="m707.3 411.3h-46.3l23.2-40.2z"/>
</svg>