<svg version="1.2" xmlns="http://www.w3.org/2000/svg" viewBox="0 0 800 1000" width="800" height="1000">
	<title>yellow-duck-svg</title>
	<defs>
		<linearGradient id="g1" x1="401" y1="1008" x2="401" y2="-12" gradientUnits="userSpaceOnUse">
			<stop offset="0" stop-color="#5fb9e9"/>
			<stop offset="1" stop-color="#178cd3"/>
		</linearGradient>
		<linearGradient id="g2" x1="401.3" y1="1012.1" x2="401.3" y2="901.2" gradientUnits="userSpaceOnUse">
			<stop offset="0" stop-color="#47c51d"/>
			<stop offset="1" stop-color="#6dc272"/>
		</linearGradient>
		<linearGradient id="g3" x1="404.8" y1="1013.4" x2="404.8" y2="899" gradientUnits="userSpaceOnUse">
			<stop offset="0" stop-color="#359c13"/>
			<stop offset="1" stop-color="#5c9a47"/>
		</linearGradient>
		<linearGradient id="g4" x1="180" y1="230.7" x2="620" y2="445.3" gradientUnits="userSpaceOnUse">
			<stop offset="0" stop-color="#ffe981"/>
			<stop offset="1" stop-color="#ffe153"/>
		</linearGradient>
	</defs>
	<style>
		.s0 { fill: url(#g1) } 
		.s1 { fill: url(#g2) } 
		.s2 { fill: url(#g3) } 
		.s3 { fill: #ff941b } 
		.s4 { fill: #ffe153 } 
		.s5 { fill: #ffe981 } 
		.s6 { fill: url(#g4) } 
		.s7 { fill: #49442c } 
	</style>
	<path id="Shape 3" class="s0" d="m-9-12h820v1020h-820z"/>
	<path id="Shape 2" class="s1" d="m-14 933c14-17.6 83.3-30.9 112.7-31.1 29.3-0.2 76.6 14.7 127 16.5 50.3 1.8 79.1-14.8 124.5-17 45.3-2.2 88.9 14.1 118 10.5 16-2 102-7.8 232-2.5 37 1.5 115.5 28 115.5 28 0 0 18.3 46.8 1.3 62.6-17 15.8-800 13-823.7 8.8-23.7-4.2-13.4-68.2-7.3-75.8z"/>
	<path id="Shape 1" class="s2" d="m0 953c0 0 48.7-32.8 102-40 53.3-7.2 124.7 17.2 161 16 36.3-1.2 99.7-15.8 158-28 58.3-12.2 382.7 35.2 388 52 5.3 16.8 17 53.2 4 57-13 3.8-799.3 6-813-2-13.7-8-11.3-38.8 0-55z"/>
	<g id="Folder 3">
		<path id="Shape 8" class="s3" d="m364.3 903.9l-25.6-1.7-34.7 35.5 41 18.8z"/>
		<path id="Shape 8 copy" class="s3" d="m337.3 761h27v144h-27z"/>
	</g>
	<g id="Folder 3 copy">
		<path id="Shape 8" class="s3" d="m436 903.9l25.6-1.7 34.7 35.5-41 18.8z"/>
		<path id="Shape 8 copy" class="s3" d="m436 761h27v144h-27z"/>
	</g>
	<path id="Shape 9" class="s4" d="m663.7 677.4l-120.5-145-15.5 122.5z"/>
	<path id="Shape 4" class="s4" d="m400.2 774.5c-106.3 0-192.2-8-192.2-114.3 0-106.3 85.9-192.2 192.2-192.2 106.3 0 192.3 85.9 192.3 192.2 0 106.3-86 114.3-192.3 114.3z"/>
	<path id="Shape 6" class="s5" d="m448.7 156.4h-44.5l-41.1-5.7 7.1-2.8 80-63-25 52 50-27z"/>
	<path id="Shape 5" class="s6" d="m400 534c-121.7 0-220-29.3-220-151 0-121.7 98.3-241 220-241 121.7 0 220 119.3 220 241 0 121.7-98.3 151-220 151z"/>
	<g id="Folder 1">
		<path id="Shape 7 copy" class="s7" d="m322.2 356.2c-15 0-27.2-9.2-27.2-20.6 0-11.4 12.2-20.6 27.2-20.6 15.1 0 27.2 9.2 27.2 20.6 0 11.4-12.1 20.6-27.2 20.6z"/>
		<path id="Shape 7 copy 3" class="s7" d="m477.8 356.2c-15.1 0-27.2-9.2-27.2-20.6 0-11.4 12.1-20.6 27.2-20.6 15 0 27.2 9.2 27.2 20.6 0 11.4-12.2 20.6-27.2 20.6z"/>
	</g>
	<path id="Shape 14" class="s3" d="m399.3 385.2c31-0.5 54.7 24.8 54.7 24.8l-55.2 27.2-54.2-27.2c0 0 20.7-24.3 54.7-24.8z"/>
</svg>