<svg version="1.2" xmlns="http://www.w3.org/2000/svg" viewBox="0 0 465 465" width="465" height="465"><defs><linearGradient id="P" gradientUnits="userSpaceOnUse"/><linearGradient id="g1" x1="12" y1="156.7" x2="452" y2="371.3" href="#P"><stop stop-color="#ffe981"/><stop offset="1" stop-color="#ffe153"/></linearGradient></defs><style>.a{fill:#ffe981}.b{fill:url(#g1)}.c{fill:#49442c}.d{fill:#ff941b}</style><path class="a" d="m280.7 71.4h-44.5l-41.1-5.7 7.1-2.8 80-63-25 52 50-27z"/><path class="b" d="m232 460c-121.7 0-220-29.3-220-151 0-121.7 98.3-241 220-241 121.7 0 220 119.3 220 241 0 121.7-98.3 151-220 151z"/><path class="c" d="m142.2 271.2c-21.7 0-39.2-13.3-39.2-29.7 0-16.4 17.5-29.7 39.2-29.7 21.7 0 39.2 13.3 39.2 29.7 0 16.4-17.5 29.7-39.2 29.7z"/><path class="c" d="m316.2 271.2c-21.7 0-39.2-13.3-39.2-29.7 0-16.4 17.5-29.7 39.2-29.7 21.7 0 39.2 13.3 39.2 29.7 0 16.4-17.5 29.7-39.2 29.7z"/><path class="c" d="m309.8 271.2c-15.1 0-27.2-9.2-27.2-20.6 0-11.4 12.1-20.6 27.2-20.6 15 0 27.2 9.2 27.2 20.6 0 11.4-12.2 20.6-27.2 20.6z"/><path fill-rule="evenodd" class="d" d="m146.3 336.1c0 0 76.8 22.5 94.5 32.8 2.2-15.1 3.2-38.5 3.2-38.5 0 0 0.7-37.9-4.3-37.4-58.2 6-93.4 43.1-93.4 43.1zm90.4 45.4c1.7 1.6 3.1-4.2 4.1-12.6-17.7-10.3-94.5-32.8-94.5-32.8 0 0 81.3 36.1 90.4 45.4zm-63.3 516.1c-58.1 6-93.4 43.1-93.4 43.1 0 0 88.5 25.8 97.6 34.9 4.8 5 2.8-40.9 2.8-40.9 0 0-2-37.6-7-37.1z"/><path fill-rule="evenodd" class="d" d="m332.7 336.3c0 0-81.4 23.9-98.1 34.3 1 8.5 2.4 14.6 4.1 12.7 9.3-9.3 94-47 94-47zm-100.7-5.8c0 0 0.7 24.4 2.6 40.1 16.7-10.4 98.1-34.3 98.1-34.3 0 0-36.3-38.2-96.1-44.3-5.3-0.5-4.6 38.5-4.6 38.5zm15.5 473.4c0 0-2 47.2 2.9 42.1 9.4-9.4 100.4-36 100.4-36 0 0-36.3-38.1-96.1-44.3-5.3-0.5-7.2 38.2-7.2 38.2z"/></svg>