<svg version="1.2" xmlns="http://www.w3.org/2000/svg" viewBox="0 0 800 1000" width="800" height="1000">
	<title>yellow-duck-svg</title>
	<defs>
		<linearGradient id="g1" x1="400" y1="1010" x2="400" y2="-10" gradientUnits="userSpaceOnUse">
			<stop offset="0" stop-color="#7b9fb2"/>
			<stop offset="1" stop-color="#1e7ab1"/>
		</linearGradient>
		<linearGradient id="g2" x1="398.6" y1="1012.1" x2="398.6" y2="901.2" gradientUnits="userSpaceOnUse">
			<stop offset="0" stop-color="#1e2a4e"/>
			<stop offset="1" stop-color="#2a2662"/>
		</linearGradient>
		<linearGradient id="g3" x1="0" y1="0" x2="0" y2="0" gradientUnits="userSpaceOnUse">
			<stop offset="0" stop-color="#47c51d"/>
			<stop offset="1" stop-color="#6dc272"/>
		</linearGradient>
		<linearGradient id="g4" x1="400.3" y1="1013.4" x2="400.3" y2="899" gradientUnits="userSpaceOnUse">
			<stop offset="0" stop-color="#13609c"/>
			<stop offset="1" stop-color="#474d9a"/>
		</linearGradient>
		<linearGradient id="g5" x1="0" y1="0" x2="0" y2="0" gradientUnits="userSpaceOnUse">
			<stop offset="0" stop-color="#13609c"/>
			<stop offset="1" stop-color="#474d9a"/>
		</linearGradient>
		<linearGradient id="g6" x1="180" y1="230.7" x2="620" y2="445.3" gradientUnits="userSpaceOnUse">
			<stop offset="-0.031" stop-color="#ffe153"/>
			<stop offset="0" stop-color="#c498b9"/>
			<stop offset="1" stop-color="#d1c7ce"/>
		</linearGradient>
		<radialGradient id="g7" cx="402.5" cy="469.5" r="60.6" gradientUnits="userSpaceOnUse">
			<stop offset="0" stop-color="#948aff"/>
			<stop offset=".603" stop-color="#948aff"/>
			<stop offset=".98" stop-color="#5c4cfb"/>
			<stop offset="1" stop-color="#5c4cfb"/>
		</radialGradient>
		<radialGradient id="g8" cx="400" cy="425" r="41.2" gradientUnits="userSpaceOnUse">
			<stop offset="0" stop-color="#948aff"/>
			<stop offset=".603" stop-color="#948aff"/>
			<stop offset=".98" stop-color="#5c4cfb"/>
			<stop offset="1" stop-color="#5c4cfb"/>
		</radialGradient>
	</defs>
	<style>
		.s0 { fill: url(#g1) } 
		.s1 { fill: url(#g2) } 
		.s2 { fill: url(#g3) } 
		.s3 { fill: url(#g4) } 
		.s4 { fill: url(#g5) } 
		.s5 { fill: #ff1985 } 
		.s6 { fill: #caafc3 } 
		.s7 { fill: #c6a0bc } 
		.s8 { fill: #c7a2be } 
		.s9 { fill: url(#g6) } 
		.s10 { fill: #49442c } 
		.s11 { fill: #ff941b } 
		.s12 { fill: #4b40b3 } 
		.s13 { fill: url(#g7) } 
		.s14 { fill: url(#g8) } 
		.s15 { fill: #a8a17f } 
	</style>
	<path id="Shape 3" class="s0" d="m-10-10h820v1020h-820z"/>
	<path id="Shape 2" class="s1" d="m814 933c-14-17.6-83.3-30.9-112.7-31.1-29.3-0.2-76.6 14.7-127 16.5-50.3 1.8-79.1-14.8-124.5-17-45.3-2.2-88.9 14.1-118 10.5-16-2-102-7.8-232-2.5-37 1.5-115.5 28-115.5 28 0 0-18.3 46.8-1.3 62.6 17 15.8 800 13 823.7 8.8 23.7-4.2 13.4-68.2 7.3-75.8z"/>
	<path id="Shape 15" class="s2" d="m192 948"/>
	<path id="Shape 1" class="s3" d="m805 953c0 0-48.7-32.8-102-40-53.3-7.2-124.7 17.2-161 16-36.3-1.2-99.7-15.8-158-28-58.3-12.2-382.7 35.2-388 52-5.3 16.8-17 53.2-4 57 13 3.8 799.3 6 813-2 13.7-8 11.3-38.8 0-55z"/>
	<path id="Shape 16" class="s4" d="m-334 1060"/>
	<g id="Folder 3">
		<path id="Shape 8" class="s5" d="m435.7 903.9l25.6-1.7 34.7 35.5-41 18.8z"/>
		<path id="Shape 8 copy" class="s5" d="m435.7 761h27v144h-27z"/>
	</g>
	<g id="Folder 3 copy">
		<path id="Shape 8" class="s5" d="m364 903.9l-25.6-1.7-34.7 35.5 41 18.8z"/>
		<path id="Shape 8 copy" class="s5" d="m337 761h27v144h-27z"/>
	</g>
	<path id="Shape 9" class="s6" d="m136.3 677.4l120.5-145 15.5 122.5z"/>
	<path id="Shape 9 copy" class="s6" d="m663.3 677.4l-120.5-145-15.5 122.5z"/>
	<path id="Shape 4" class="s7" d="m399.8 774.5c106.3 0 192.2-8 192.2-114.3 0-106.3-85.9-192.2-192.2-192.2-106.3 0-192.3 85.9-192.3 192.2 0 106.3 86 114.3 192.3 114.3z"/>
	<path id="Shape 6" class="s8" d="m351.3 156.4h44.5l41.1-5.7-7.1-2.8-80-63 25 52-50-27z"/>
	<path id="Shape 5" class="s9" d="m400 534c121.7 0 220-29.3 220-151 0-121.7-98.3-241-220-241-121.7 0-220 119.3-220 241 0 121.7 98.3 151 220 151z"/>
	<g id="Folder 1">
		<path id="Shape 7 copy" class="s10" d="m477.8 315c15 0 27.2 9.2 27.2 20.6 0 11.4-12.2 20.6-27.2 20.6-15 0-27.2-9.2-27.2-20.6 0-11.4 12.2-20.6 27.2-20.6z"/>
		<path id="Shape 7 copy 3" class="s10" d="m322.2 315c15 0 27.2 9.2 27.2 20.6 0 11.4-12.2 20.6-27.2 20.6-15 0-27.2-9.2-27.2-20.6 0-11.4 12.2-20.6 27.2-20.6z"/>
	</g>
	<g id="Folder 2">
		<path id="Shape 7" fill-rule="evenodd" class="s11" d="m400.4 438.4c-1 1-1.9-2.5-2.5-7.6 10.7-6.2 57.1-19.8 57.1-19.8 0 0-49.1 21.8-54.6 27.4zm-4.4-30.8c0 0-0.4-22.9 2.6-22.6-3-0.3-4.2 22.4-4.2 22.4 0 0-1.2 27.7 1.7 24.7q0.6-0.6 1.8-1.3c-1.3-9.1-1.9-23.2-1.9-23.2zm1.9 23.2c10.7-6.2 57.1-19.8 57.1-19.8 0 0-46.4 13.6-57.1 19.8z"/>
		<path id="Shape 7 copy 2" fill-rule="evenodd" class="s11" d="m403.9 407.6c0 0-0.4 14.3-1.5 23.5-0.6 5-1.4 8.6-2.4 7.5-5.5-5.5-55.2-27.6-55.2-27.6l57.6 20.1q0.8 0.6 1.3 1c2.9 3 1.7-24.7 1.7-24.7 0 0-1.1-22.7-4.2-22.4 3.1-0.3 2.7 22.6 2.7 22.6zm-1.5 23.5c-9.8-6.1-57.6-20.1-57.6-20.1 0 0 47.8 14 57.6 20.1z"/>
		<path id="Path 0" class="s12" d="m475.5 380.3c3.9 1.3 8.5 3.1 10.3 4 1.7 0.9 4.9 3.2 6.9 4.9 2 1.8 5.6 6 8 9.3 2.8 3.8 5.2 8.6 6.5 13 1.7 5.6 2 8.9 1.7 17-0.4 8.8-0.9 10.9-3.8 17-2 4.2-5.5 9.3-9 12.9-3.1 3.2-7.6 7-10.1 8.4-2.5 1.4-7.1 3.4-10.3 4.4-4.1 1.3-9 1.8-17.4 1.8-8.3 0-12.9-0.4-15.6-1.5-2.1-0.9-10-1.9-19-2.6-8.3-0.6-22-0.8-30.2-0.4-8.3 0.3-17.9 1.1-21.5 1.6-3.6 0.6-7.4 1.7-8.5 2.5-1.5 1.1-5.5 1.4-16 1.4-9.5 0-15.9-0.5-20-1.6-3.3-0.8-8.3-2.7-11-4.2-2.8-1.5-7.9-5.6-11.5-9.2-4.9-4.9-7.2-8.1-9.1-13-1.5-3.6-3.1-8.1-3.8-10-0.6-1.9-1.1-6.8-1.1-10.8 0-3.9 0.3-7.4 0.7-7.6 0.5-0.2 1.1-1.9 1.4-3.7 0.4-1.9 1.7-5.7 3-8.4 1.3-2.8 5.1-7.9 8.4-11.4 3.3-3.5 8-7.5 10.5-8.9 2.5-1.5 7.1-3.4 10.2-4.4 4.5-1.4 9.2-1.8 21-1.8 8.4 0 24.1 0.5 34.8 1.1 14.3 0.9 25.1 0.9 40.5 0 11.6-0.6 26.9-1.3 34-1.6 11.8-0.5 13.6-0.3 20 1.8z"/>
		<path id="Shape 14" fill-rule="evenodd" class="s13" d="m402.5 415c30.1 0 54.5 24.4 54.5 54.5 0 30.1-24.4 54.5-54.5 54.5-30.1 0-54.5-24.4-54.5-54.5 0-30.1 24.4-54.5 54.5-54.5zm-42.5 54c0 23.8 19.2 43 43 43 23.8 0 43-19.2 43-43 0-23.8-19.2-43-43-43-23.8 0-43 19.2-43 43z"/>
		<path id="Shape 13" class="s14" d="m400 388c20.5 0 37 16.5 37 37 0 20.5-16.5 37-37 37-20.5 0-37-16.5-37-37 0-20.5 16.5-37 37-37z"/>
		<path id="Shape 12" class="s15" d="m471.5 318c4.1 0 7.5 2.2 7.5 5 0 2.8-3.4 5-7.5 5-4.1 0-7.5-2.2-7.5-5 0-2.8 3.4-5 7.5-5z"/>
		<path id="Shape 12 copy" class="s15" d="m315.5 318c4.1 0 7.5 2.2 7.5 5 0 2.8-3.4 5-7.5 5-4.1 0-7.5-2.2-7.5-5 0-2.8 3.4-5 7.5-5z"/>
		<path id="Shape 18" class="s15" d="m-133 433"/>
	</g>
</svg>